# Blender v3.0.0 OBJ File: 'objects.blend'
# www.blender.org
g FXPoly_Health
v 0.202330 -0.175674 -0.230206
v 0.176386 -0.201618 -0.230206
v -0.181027 -0.201618 -0.230206
v -0.206971 -0.175674 -0.230206
v -0.206971 0.181739 -0.230206
v -0.181027 0.207683 -0.230206
v 0.176386 0.207683 -0.230206
v 0.202330 0.181739 -0.230206
v 0.202330 0.181739 0.236593
v 0.176386 0.207683 0.236593
v -0.181027 0.207683 0.236593
v -0.206971 0.181739 0.236593
v -0.206971 -0.175674 0.236593
v -0.181027 -0.201618 0.236593
v 0.176386 -0.201618 0.236593
v 0.202330 -0.175674 0.236593
v 0.220297 -0.188963 0.225811
v 0.248519 -0.217184 0.197589
v 0.474321 -0.217184 0.197589
v 0.474321 -0.188963 0.225811
v 0.220297 -0.245406 0.197589
v 0.192075 -0.217184 0.225811
v 0.192075 -0.471208 0.225811
v 0.220297 -0.471208 0.197589
v 0.220297 -0.245406 -0.191202
v 0.248519 -0.217184 -0.191202
v 0.220297 -0.188963 -0.219424
v 0.474321 -0.188963 -0.219424
v 0.474321 -0.217184 -0.191202
v 0.192075 -0.217184 -0.219424
v 0.220297 -0.471208 -0.191202
v 0.192075 -0.471208 -0.219424
v -0.253159 -0.217184 0.197589
v -0.224937 -0.188963 0.225811
v -0.478961 -0.188963 0.225811
v -0.478961 -0.217184 0.197589
v -0.224937 -0.245406 0.197589
v -0.253159 -0.217184 -0.191202
v -0.224937 -0.245406 -0.191202
v -0.196716 -0.217184 0.225811
v -0.224937 -0.471208 0.197589
v -0.196716 -0.471208 0.225811
v -0.224937 -0.188963 -0.219424
v -0.478961 -0.217184 -0.191202
v -0.478961 -0.188963 -0.219424
v -0.196716 -0.217184 -0.219424
v -0.196716 -0.471208 -0.219424
v -0.224937 -0.471208 -0.191202
v 0.248519 0.228050 0.197589
v 0.220297 0.199829 0.225811
v 0.474321 0.199829 0.225811
v 0.474321 0.228050 0.197589
v 0.220297 0.256272 0.197589
v 0.248519 0.228050 -0.191202
v 0.220297 0.256272 -0.191202
v 0.192075 0.228050 0.225811
v 0.220297 0.482074 0.197589
v 0.192075 0.482074 0.225811
v 0.220297 0.199829 -0.219424
v 0.474321 0.228050 -0.191202
v 0.474321 0.199829 -0.219424
v 0.192075 0.228050 -0.219424
v 0.192075 0.482074 -0.219424
v 0.220297 0.482074 -0.191202
v -0.224937 0.199829 0.225811
v -0.253159 0.228050 0.197589
v -0.478961 0.228050 0.197589
v -0.478961 0.199829 0.225811
v -0.224937 0.256272 0.197589
v -0.196716 0.228050 0.225811
v -0.196716 0.482074 0.225811
v -0.224937 0.482074 0.197589
v -0.224937 0.256272 -0.191202
v -0.253159 0.228050 -0.191202
v -0.224937 0.199829 -0.219424
v -0.478961 0.199829 -0.219424
v -0.478961 0.228050 -0.191202
v -0.196716 0.228050 -0.219424
v -0.224937 0.482074 -0.191202
v -0.196716 0.482074 -0.219424
v 0.192075 -0.499430 0.197589
v 0.192075 -0.499430 -0.191202
v -0.196716 -0.499430 0.197589
v -0.196716 -0.499430 -0.191202
v 0.192075 0.510296 -0.191202
v 0.192075 0.510296 0.197589
v -0.196716 0.510296 -0.191202
v -0.196716 0.510296 0.197589
v -0.507183 0.199829 -0.191202
v -0.507183 -0.188963 -0.191202
v -0.507183 0.199829 0.197589
v -0.507183 -0.188963 0.197589
v 0.502543 0.199829 -0.191202
v 0.502543 -0.188963 -0.191202
v 0.502543 0.199829 0.197589
v 0.502543 -0.188963 0.197589
v 0.176386 -0.489834 0.181900
v -0.181027 -0.489834 0.181900
v -0.181027 -0.489834 -0.175513
v 0.176386 -0.489834 -0.175513
v 0.176386 -0.435141 0.236593
v -0.181027 -0.435141 0.236593
v -0.181027 -0.435141 -0.230206
v 0.176386 -0.435141 -0.230206
v 0.176386 0.441205 -0.230206
v -0.181027 0.441205 -0.230206
v -0.181027 0.441205 0.236593
v 0.176386 0.441205 0.236593
v -0.440493 0.181739 -0.230206
v -0.440493 -0.175674 -0.230206
v -0.440493 -0.175674 0.236593
v -0.440493 0.181739 0.236593
v 0.435853 0.181739 0.236593
v 0.435853 -0.175674 0.236593
v 0.435853 -0.175674 -0.230206
v 0.435853 0.181739 -0.230206
vt 0.375000 0.515847
vt 0.390847 0.500000
vt 0.609153 0.500000
vt 0.625000 0.515847
vt 0.625000 0.734153
vt 0.609154 0.750000
vt 0.390847 0.750000
vt 0.375000 0.734153
vt 0.375000 0.015847
vt 0.390847 0.000000
vt 0.609153 0.000000
vt 0.625000 0.015847
vt 0.625000 0.234153
vt 0.609154 0.250000
vt 0.390847 0.250000
vt 0.375000 0.234153
vt 0.375000 0.234153
vt 0.359153 0.250000
vt 0.359153 0.250000
vt 0.375000 0.234153
vt 0.375000 0.265847
vt 0.390847 0.250000
vt 0.390847 0.250000
vt 0.375000 0.265847
vt 0.375000 0.265847
vt 0.375000 0.484153
vt 0.375000 0.484153
vt 0.140847 0.250000
vt 0.125000 0.234153
vt 0.125000 0.234153
vt 0.140847 0.250000
vt 0.390847 0.500000
vt 0.375000 0.484153
vt 0.390847 0.500000
vt 0.640847 0.250000
vt 0.625000 0.234153
vt 0.625000 0.234153
vt 0.640847 0.250000
vt 0.625000 0.265847
vt 0.625000 0.265847
vt 0.625000 0.484153
vt 0.625000 0.484153
vt 0.609154 0.250000
vt 0.625000 0.265847
vt 0.609153 0.250000
vt 0.875000 0.234153
vt 0.859153 0.250000
vt 0.859153 0.250000
vt 0.875000 0.234153
vt 0.609153 0.500000
vt 0.609154 0.500000
vt 0.625000 0.484153
vt 0.359153 0.000000
vt 0.375000 0.015847
vt 0.375000 0.015847
vt 0.359153 0.000000
vt 0.375000 0.984153
vt 0.375000 0.984153
vt 0.375000 0.765847
vt 0.375000 0.765847
vt 0.390847 1.000000
vt 0.375000 0.984153
vt 0.390847 1.000000
vt 0.125000 0.015847
vt 0.140847 0.000000
vt 0.140847 0.000000
vt 0.125000 0.015847
vt 0.390847 0.750000
vt 0.390847 0.750000
vt 0.375000 0.765847
vt 0.625000 0.015847
vt 0.640847 0.000000
vt 0.640847 0.000000
vt 0.625000 0.015847
vt 0.625000 0.984153
vt 0.609153 1.000000
vt 0.609154 1.000000
vt 0.625000 0.984153
vt 0.625000 0.984153
vt 0.625000 0.765847
vt 0.625000 0.765847
vt 0.859153 0.000000
vt 0.875000 0.015847
vt 0.875000 0.015847
vt 0.859153 0.000000
vt 0.609154 0.750000
vt 0.625000 0.765847
vt 0.609153 0.750000
vt 0.390847 0.265847
vt 0.390847 0.484153
vt 0.609153 0.265847
vt 0.609153 0.484153
vt 0.390847 0.765847
vt 0.390847 0.984153
vt 0.609153 0.765847
vt 0.609153 0.984153
vt 0.859153 0.015847
vt 0.859153 0.234153
vt 0.640847 0.015847
vt 0.640847 0.234153
vt 0.140847 0.015847
vt 0.140847 0.234153
vt 0.359153 0.015847
vt 0.359153 0.234153
vt 0.390847 0.265847
vt 0.609153 0.265847
vt 0.609153 0.484153
vt 0.390847 0.484153
vt 0.390847 0.250000
vt 0.609153 0.250000
vt 0.609154 0.500000
vt 0.390847 0.500000
vt 0.390847 0.750000
vt 0.609153 0.750000
vt 0.609154 1.000000
vt 0.609153 1.000000
vt 0.390847 1.000000
vt 0.390847 1.000000
vt 0.875000 0.015847
vt 0.875000 0.015847
vt 0.875000 0.234153
vt 0.875000 0.234153
vt 0.625000 0.234153
vt 0.625000 0.015847
vt 0.375000 0.015847
vt 0.375000 0.234153
vt 0.125000 0.234153
vt 0.125000 0.234153
vt 0.125000 0.015847
vt 0.125000 0.015847
vt 0.375000 0.500000
vt 0.375000 0.515847
vt 0.625000 0.515847
vt 0.375000 0.000000
vt 0.390847 0.000000
vt 0.375000 0.750000
vt 0.375000 0.734153
vt 0.625000 1.000000
vt 0.625000 0.750000
vt 0.625000 0.734153
vt 0.609153 0.000000
vn -0.0282 -0.0042 -0.9996
vn 0.0047 0.0294 -0.9996
vn -0.0047 0.0295 -0.9996
vn 0.0281 -0.0043 -0.9996
vn 0.0311 0.0038 -0.9995
vn -0.0035 -0.0299 -0.9995
vn 0.0035 -0.0299 -0.9995
vn -0.0310 0.0039 -0.9995
vn -0.0310 0.0038 0.9995
vn 0.0036 -0.0299 0.9995
vn -0.0035 -0.0299 0.9995
vn 0.0311 0.0038 0.9995
vn 0.0282 -0.0043 0.9996
vn -0.0047 0.0294 0.9996
vn 0.0047 0.0295 0.9996
vn -0.0282 -0.0042 0.9996
vn 0.0726 -0.6251 0.7772
vn 0.1069 -0.9892 0.1000
vn 0.1054 -0.9922 0.0660
vn 0.4193 -0.2247 0.8796
vn 0.9892 -0.1068 0.1000
vn 0.5960 -0.0723 0.7997
vn 0.2344 -0.4256 0.8740
vn 0.9922 -0.1054 0.0660
vn 0.9892 -0.1069 -0.1000
vn 0.1068 -0.9892 -0.1000
vn 0.0726 -0.6251 -0.7772
vn 0.4193 -0.2247 -0.8796
vn 0.1054 -0.9922 -0.0660
vn 0.5960 -0.0723 -0.7997
vn 0.9922 -0.1054 -0.0660
vn 0.2344 -0.4256 -0.8740
vn -0.1068 -0.9892 0.1000
vn -0.0725 -0.6251 0.7772
vn -0.4193 -0.2247 0.8796
vn -0.1054 -0.9922 0.0660
vn -0.9892 -0.1069 0.1000
vn -0.1069 -0.9892 -0.1000
vn -0.9892 -0.1068 -0.1000
vn -0.5960 -0.0723 0.7997
vn -0.9922 -0.1054 0.0660
vn -0.2344 -0.4256 0.8740
vn -0.0726 -0.6251 -0.7772
vn -0.1054 -0.9922 -0.0660
vn -0.4193 -0.2247 -0.8796
vn -0.5960 -0.0723 -0.7997
vn -0.2344 -0.4256 -0.8740
vn -0.9922 -0.1054 -0.0660
vn 0.1068 0.9892 0.1000
vn 0.0684 0.5662 0.8214
vn 0.4169 0.2316 0.8790
vn 0.1054 0.9922 0.0660
vn 0.9892 0.1069 0.1000
vn 0.1069 0.9892 -0.1000
vn 0.9892 0.1068 -0.1000
vn 0.5927 0.0689 0.8025
vn 0.9922 0.1054 0.0660
vn 0.2224 0.4110 0.8841
vn 0.0684 0.5662 -0.8214
vn 0.1054 0.9922 -0.0660
vn 0.4169 0.2316 -0.8790
vn 0.5927 0.0689 -0.8025
vn 0.2224 0.4110 -0.8841
vn 0.9922 0.1054 -0.0660
vn -0.0684 0.5662 0.8214
vn -0.1069 0.9892 0.1000
vn -0.1054 0.9922 0.0660
vn -0.4169 0.2316 0.8790
vn -0.9892 0.1068 0.1000
vn -0.5927 0.0689 0.8025
vn -0.2224 0.4110 0.8841
vn -0.9922 0.1054 0.0660
vn -0.9892 0.1069 -0.1000
vn -0.1068 0.9892 -0.1000
vn -0.0684 0.5662 -0.8214
vn -0.4169 0.2316 -0.8790
vn -0.1054 0.9922 -0.0660
vn -0.5927 0.0689 -0.8025
vn -0.9922 0.1054 -0.0660
vn -0.2224 0.4110 -0.8841
vn 0.2941 -0.9094 0.2941
vn 0.2941 -0.9094 -0.2941
vn -0.2941 -0.9094 0.2941
vn -0.2941 -0.9094 -0.2941
vn 0.0646 0.9958 -0.0645
vn 0.0645 0.9958 0.0646
vn -0.0645 0.9958 -0.0646
vn -0.0646 0.9958 0.0645
vn -0.9958 0.0646 -0.0645
vn -0.9958 -0.0645 -0.0646
vn -0.9958 0.0646 0.0646
vn -0.9958 -0.0646 0.0645
vn 0.9958 0.0645 -0.0646
vn 0.9958 -0.0646 -0.0645
vn 0.9958 0.0646 0.0645
vn 0.9958 -0.0645 0.0646
vn -0.0358 -0.9987 -0.0358
vn 0.0358 -0.9987 -0.0358
vn 0.0358 -0.9987 0.0358
vn -0.0358 -0.9987 0.0358
vn 0.0415 -0.0470 0.9980
vn -0.0415 -0.0470 0.9980
vn -0.0415 -0.0470 -0.9980
vn 0.0415 -0.0470 -0.9980
vn 0.0415 0.0453 -0.9981
vn -0.0416 0.0453 -0.9981
vn -0.0415 0.0453 0.9981
vn 0.0416 0.0453 0.9981
vn -0.0468 0.0404 -0.9981
vn -0.0454 -0.0427 -0.9981
vn -0.0454 -0.0427 0.9981
vn -0.0467 0.0404 0.9981
vn 0.0468 0.0404 0.9981
vn 0.0454 -0.0427 0.9981
vn 0.0454 -0.0427 -0.9981
vn 0.0467 0.0404 -0.9981
s 1
f 1/1/1 2/2/2 3/3/3 4/4/4 5/5/5 6/6/6 7/7/7 8/8/8
f 9/9/9 10/10/10 11/11/11 12/12/12 13/13/13 14/14/14 15/15/15 16/16/16
f 17/17/17 18/18/18 19/19/19 20/20/20
f 21/21/21 22/22/22 23/23/23 24/24/24
f 18/25/18 21/21/21 25/26/25 26/27/26
f 26/28/26 27/29/27 28/30/28 29/31/29
f 30/32/30 25/26/25 31/33/31 32/34/32
f 33/35/33 34/36/34 35/37/35 36/38/36
f 37/39/37 33/40/33 38/41/38 39/42/39
f 40/43/40 37/39/37 41/44/41 42/45/42
f 43/46/43 38/47/38 44/48/44 45/49/45
f 39/42/39 46/50/46 47/51/47 48/52/48
f 49/53/49 50/54/50 51/55/51 52/56/52
f 53/57/53 49/58/49 54/59/54 55/60/55
f 56/61/56 53/57/53 57/62/57 58/63/58
f 59/64/59 54/65/54 60/66/60 61/67/61
f 55/60/55 62/68/62 63/69/63 64/70/64
f 65/71/65 66/72/66 67/73/67 68/74/68
f 69/75/69 70/76/70 71/77/71 72/78/72
f 66/79/66 69/75/69 73/80/73 74/81/74
f 74/82/74 75/83/75 76/84/76 77/85/77
f 78/86/78 73/80/73 79/87/79 80/88/80
f 24/24/24 81/89/81 82/90/82 31/33/31
f 81/89/81 23/23/23 42/45/42 83/91/83
f 83/91/83 41/44/41 48/52/48 84/92/84
f 84/92/84 47/51/47 32/34/32 82/90/82
f 64/70/64 85/93/85 86/94/86 57/62/57
f 85/93/85 63/69/63 80/88/80 87/95/87
f 87/95/87 79/87/79 72/78/72 88/96/88
f 88/96/88 71/77/71 58/63/58 86/94/86
f 89/97/89 76/84/76 45/49/45 90/98/90
f 77/85/77 89/97/89 91/99/91 67/73/67
f 68/74/68 91/99/91 92/100/92 35/37/35
f 90/98/90 44/48/44 36/38/36 92/100/92
f 61/67/61 93/101/93 94/102/94 28/30/28
f 93/101/93 60/66/60 52/56/52 95/103/95
f 95/103/95 51/55/51 20/20/20 96/104/96
f 96/104/96 19/19/19 29/31/29 94/102/94
f 97/105/97 98/106/98 99/107/99 100/108/100
f 85/93/85 87/95/87 88/96/88 86/94/86
f 91/99/91 89/97/89 90/98/90 92/100/92
f 93/101/93 95/103/95 96/104/96 94/102/94
f 101/109/101 15/15/15 14/14/14 102/110/102
f 103/111/103 3/3/3 2/2/2 104/112/104
f 105/113/105 7/7/7 6/6/6 106/114/106
f 107/115/107 11/116/11 10/117/10 108/118/108
f 109/119/109 5/120/5 4/121/4 110/122/110
f 111/123/111 13/13/13 12/12/12 112/124/112
f 113/125/113 9/9/9 16/16/16 114/126/114
f 115/127/115 1/128/1 8/129/8 116/130/116
f 31/33/31 25/26/25 21/21/21 24/24/24
f 19/19/19 18/18/18 26/28/26 29/31/29
f 44/48/44 38/47/38 33/35/33 36/38/36
f 41/44/41 37/39/37 39/42/39 48/52/48
f 60/66/60 54/65/54 49/53/49 52/56/52
f 57/62/57 53/57/53 55/60/55 64/70/64
f 79/87/79 73/80/73 69/75/69 72/78/72
f 67/73/67 66/72/66 74/82/74 77/85/77
f 18/18/18 17/17/17 22/22/22 21/21/21
f 26/131/26 25/26/25 30/32/30 27/132/27
f 33/35/33 37/39/37 40/43/40 34/36/34
f 38/41/38 43/133/43 46/50/46 39/42/39
f 49/53/49 53/134/53 56/135/56 50/54/50
f 54/136/54 59/137/59 62/68/62 55/60/55
f 66/79/66 65/138/65 70/76/70 69/75/69
f 74/139/74 73/80/73 78/86/78 75/140/75
f 24/24/24 23/23/23 81/89/81
f 83/91/83 42/45/42 41/44/41
f 84/92/84 48/52/48 47/51/47
f 82/90/82 32/34/32 31/33/31
f 64/70/64 63/69/63 85/93/85
f 87/95/87 80/88/80 79/87/79
f 88/96/88 72/78/72 71/77/71
f 86/94/86 58/63/58 57/62/57
f 89/97/89 77/85/77 76/84/76
f 68/74/68 67/73/67 91/99/91
f 90/98/90 45/49/45 44/48/44
f 92/100/92 36/38/36 35/37/35
f 61/67/61 60/66/60 93/101/93
f 95/103/95 52/56/52 51/55/51
f 96/104/96 20/20/20 19/19/19
f 94/102/94 29/31/29 28/30/28
f 27/132/27 30/32/30 2/2/2 1/1/1
f 46/50/46 43/133/43 4/4/4 3/3/3
f 75/140/75 78/86/78 6/6/6 5/5/5
f 62/68/62 59/137/59 8/8/8 7/7/7
f 50/54/50 56/135/56 10/10/10 9/9/9
f 70/141/70 65/71/65 12/12/12 11/11/11
f 34/36/34 40/43/40 14/14/14 13/13/13
f 22/22/22 17/17/17 16/16/16 15/15/15
f 81/89/81 83/91/83 98/106/98 97/105/97
f 83/91/83 84/92/84 99/107/99 98/106/98
f 84/92/84 82/90/82 100/108/100 99/107/99
f 82/90/82 81/89/81 97/105/97 100/108/100
f 23/23/23 22/22/22 15/15/15 101/109/101
f 40/43/40 42/45/42 102/110/102 14/14/14
f 42/45/42 23/23/23 101/109/101 102/110/102
f 47/51/47 46/50/46 3/3/3 103/111/103
f 30/32/30 32/34/32 104/112/104 2/2/2
f 32/34/32 47/51/47 103/111/103 104/112/104
f 63/69/63 62/68/62 7/7/7 105/113/105
f 78/86/78 80/88/80 106/114/106 6/6/6
f 80/88/80 63/69/63 105/113/105 106/114/106
f 71/77/71 70/76/70 11/116/11 107/115/107
f 56/61/56 58/63/58 108/118/108 10/117/10
f 58/63/58 71/77/71 107/115/107 108/118/108
f 76/84/76 75/83/75 5/120/5 109/119/109
f 43/46/43 45/49/45 110/122/110 4/121/4
f 45/49/45 76/84/76 109/119/109 110/122/110
f 35/37/35 34/36/34 13/13/13 111/123/111
f 65/71/65 68/74/68 112/124/112 12/12/12
f 68/74/68 35/37/35 111/123/111 112/124/112
f 51/55/51 50/54/50 9/9/9 113/125/113
f 17/17/17 20/20/20 114/126/114 16/16/16
f 20/20/20 51/55/51 113/125/113 114/126/114
f 28/30/28 27/29/27 1/128/1 115/127/115
f 59/64/59 61/67/61 116/130/116 8/129/8
f 61/67/61 28/30/28 115/127/115 116/130/116
