# Blender v3.0.0 OBJ File: 'objects.blend'
# www.blender.org
g FXPoly_Exclamation
v 0.091755 -0.387475 0.094618
v 0.132300 -0.428019 0.094618
v 0.132300 -0.428019 -0.094618
v 0.091755 -0.387475 -0.094618
v 0.091755 -0.428019 0.135163
v -0.097481 -0.387475 0.094618
v -0.097481 -0.428019 0.135163
v 0.091755 -0.617255 0.135163
v 0.132300 -0.617255 0.094618
v -0.138025 -0.428019 0.094618
v -0.097481 -0.387475 -0.094618
v -0.138025 -0.428019 -0.094618
v -0.138025 -0.617255 0.094618
v -0.097481 -0.617255 0.135163
v 0.091755 -0.657800 0.094618
v 0.091755 -0.657800 -0.094618
v 0.132300 -0.617255 -0.094618
v -0.097481 -0.657800 0.094618
v -0.138025 -0.617255 -0.094618
v -0.097481 -0.657800 -0.094618
v 0.091755 -0.617255 -0.135163
v 0.091755 -0.428019 -0.135163
v -0.097481 -0.617255 -0.135163
v -0.097481 -0.428019 -0.135163
v 0.172637 0.621644 0.193689
v 0.203469 0.592651 0.192102
v 0.203469 0.592651 -0.192102
v 0.172637 0.621644 -0.193689
v 0.171064 0.592523 0.221817
v -0.161596 0.621644 0.193689
v -0.160951 0.593323 0.221860
v 0.081169 -0.295450 0.087350
v 0.100352 -0.295995 0.073077
v -0.192429 0.592651 0.192102
v -0.161596 0.621644 -0.193689
v -0.192429 0.592651 -0.192102
v -0.089311 -0.295995 0.073077
v -0.070570 -0.296129 0.087332
v 0.080743 -0.323771 0.072355
v 0.080743 -0.323771 -0.072355
v 0.100368 -0.295438 -0.072806
v -0.069702 -0.323771 0.072355
v -0.089327 -0.295438 -0.072806
v -0.069785 -0.323771 -0.072417
v 0.081169 -0.295450 -0.087350
v 0.171992 0.593323 -0.221860
v -0.070129 -0.295450 -0.087350
v -0.160024 0.592523 -0.221817
vt 0.744803 1.000000
vt 0.722288 1.000000
vt 0.722288 0.885414
vt 0.744803 0.885414
vt 0.744803 0.394352
vt 0.744803 0.369801
vt 0.849887 0.369801
vt 0.849887 0.394352
vt 0.699774 0.394352
vt 0.744803 0.508938
vt 0.699774 0.508938
vt 0.872402 1.000000
vt 0.849887 1.000000
vt 0.849887 0.885414
vt 0.872402 0.885414
vt 0.894916 0.394352
vt 0.894916 0.508938
vt 0.849887 0.508938
vt 0.722288 0.558039
vt 0.744803 0.558039
vt 0.744803 0.672625
vt 0.722288 0.672625
vt 0.849887 0.558039
vt 0.872402 0.558039
vt 0.872402 0.672625
vt 0.849887 0.672625
vt 0.722288 0.721726
vt 0.744803 0.721726
vt 0.744803 0.836313
vt 0.722288 0.836313
vt 0.849887 0.721726
vt 0.872402 0.721726
vt 0.872402 0.836313
vt 0.849887 0.836313
vt 1.000000 0.394352
vt 1.000000 0.508938
vt 0.594690 0.394352
vt 0.594690 0.508938
vt 0.290096 0.966210
vt 0.252634 0.965832
vt 0.249823 0.818725
vt 0.287244 0.817892
vt 0.268382 0.020968
vt 0.264443 0.005561
vt 0.616046 0.000000
vt 0.614336 0.015393
vt 0.229764 0.022381
vt 0.377095 0.371138
vt 0.355034 0.372733
vt 0.678837 0.963224
vt 0.641403 0.964045
vt 0.639112 0.815690
vt 0.676563 0.816088
vt 0.652170 0.015741
vt 0.559826 0.368936
vt 0.538057 0.368319
vt 0.349731 0.385338
vt 0.377330 0.383449
vt 0.382560 0.437372
vt 0.356563 0.441115
vt 0.538705 0.380716
vt 0.566400 0.382329
vt 0.562258 0.440118
vt 0.536246 0.436987
vt 0.357382 0.448619
vt 0.379621 0.449343
vt 0.289244 0.802512
vt 0.251281 0.801735
vt 0.539143 0.449313
vt 0.561348 0.448378
vt 0.674485 0.799410
vt 0.635669 0.800249
vt 0.886084 0.056004
vt 0.649093 0.384004
vt 0.000000 0.070709
vt 0.267323 0.390756
vn 0.1551 0.9756 0.1551
vn 0.9756 0.1551 0.1551
vn 0.9756 0.1551 -0.1551
vn 0.1551 0.9756 -0.1551
vn 0.1551 0.1551 0.9756
vn -0.1551 0.9756 0.1551
vn -0.1551 0.1551 0.9756
vn 0.1551 -0.1551 0.9756
vn 0.9756 -0.1551 0.1551
vn -0.9756 0.1551 0.1551
vn -0.1551 0.9756 -0.1551
vn -0.9756 0.1551 -0.1551
vn -0.9756 -0.1551 0.1551
vn -0.1551 -0.1551 0.9756
vn 0.1551 -0.9756 0.1551
vn 0.1551 -0.9756 -0.1551
vn 0.9756 -0.1551 -0.1551
vn -0.1551 -0.9756 0.1551
vn -0.9756 -0.1551 -0.1551
vn -0.1551 -0.9756 -0.1551
vn 0.1551 -0.1551 -0.9756
vn 0.1551 0.1551 -0.9756
vn -0.1551 -0.1551 -0.9756
vn -0.1551 0.1551 -0.9756
vn 0.0743 0.9952 0.0639
vn 0.9930 -0.0723 0.0935
vn 0.9930 -0.0724 -0.0930
vn 0.0740 0.9952 -0.0646
vn 0.0825 -0.1096 0.9905
vn -0.0740 0.9952 0.0646
vn -0.0820 -0.1098 0.9906
vn 0.0768 -0.1628 0.9837
vn 0.9876 -0.1343 0.0815
vn -0.9931 -0.0722 0.0921
vn -0.0743 0.9952 -0.0639
vn -0.9930 -0.0724 -0.0935
vn -0.9877 -0.1341 0.0806
vn -0.0762 -0.1628 0.9837
vn 0.1527 -0.9755 0.1583
vn 0.1519 -0.9753 -0.1604
vn 0.9876 -0.1342 -0.0809
vn -0.1522 -0.9754 0.1593
vn -0.9875 -0.1343 -0.0822
vn -0.1520 -0.9753 -0.1604
vn 0.0768 -0.1629 -0.9836
vn 0.0826 -0.1099 -0.9905
vn -0.0766 -0.1629 -0.9837
vn -0.0830 -0.1097 -0.9905
s 1
f 1/1/1 2/2/2 3/3/3 4/4/4
f 5/5/5 1/6/1 6/7/6 7/8/7
f 2/9/2 5/5/5 8/10/8 9/11/9
f 10/12/10 6/13/6 11/14/11 12/15/12
f 7/8/7 10/16/10 13/17/13 14/18/14
f 9/19/9 15/20/15 16/21/16 17/22/17
f 15/20/15 8/10/8 14/18/14 18/23/18
f 18/23/18 13/24/13 19/25/19 20/26/20
f 17/27/17 21/28/21 22/29/22 3/30/3
f 21/28/21 16/21/16 20/26/20 23/31/23
f 23/31/23 19/32/19 12/33/12 24/34/24
f 4/4/4 22/29/22 24/34/24 11/14/11
f 5/5/5 7/8/7 14/18/14 8/10/8
f 15/20/15 18/23/18 20/26/20 16/21/16
f 21/28/21 23/31/23 24/34/24 22/29/22
f 4/4/4 11/14/11 6/13/6 1/1/1
f 10/16/10 12/35/12 19/36/19 13/17/13
f 3/37/3 2/9/2 9/11/9 17/38/17
f 1/6/1 5/5/5 2/9/2
f 10/16/10 7/8/7 6/7/6
f 9/11/9 8/10/8 15/20/15
f 18/23/18 14/18/14 13/17/13
f 17/22/17 16/21/16 21/28/21
f 23/31/23 20/26/20 19/25/19
f 3/30/3 22/29/22 4/4/4
f 11/14/11 24/34/24 12/33/12
f 25/39/25 26/40/26 27/41/27 28/42/28
f 29/43/29 25/44/25 30/45/30 31/46/31
f 26/47/26 29/43/29 32/48/32 33/49/33
f 34/50/34 30/51/30 35/52/35 36/53/36
f 31/46/31 34/54/34 37/55/37 38/56/38
f 33/57/33 39/58/39 40/59/40 41/60/41
f 39/58/39 32/48/32 38/56/38 42/61/42
f 42/61/42 37/62/37 43/63/43 44/64/44
f 41/65/41 45/66/45 46/67/46 27/68/27
f 45/66/45 40/59/40 44/64/44 47/69/47
f 47/69/47 43/70/43 36/71/36 48/72/48
f 28/42/28 46/67/46 48/72/48 35/52/35
f 29/43/29 31/46/31 38/56/38 32/48/32
f 39/58/39 42/61/42 44/64/44 40/59/40
f 45/66/45 47/69/47 48/72/48 46/67/46
f 28/42/28 35/52/35 30/51/30 25/39/25
f 34/54/34 36/73/36 43/74/43 37/55/37
f 27/75/27 26/47/26 33/49/33 41/76/41
f 25/44/25 29/43/29 26/47/26
f 34/54/34 31/46/31 30/45/30
f 33/49/33 32/48/32 39/58/39
f 42/61/42 38/56/38 37/55/37
f 41/60/41 40/59/40 45/66/45
f 47/69/47 44/64/44 43/63/43
f 27/68/27 46/67/46 28/42/28
f 35/52/35 48/72/48 36/71/36
